<?xml version="1.0" standalone="no"?>
<!DOCTYPE svg PUBLIC "-//W3C//DTD SVG 20010904//EN"
 "http://www.w3.org/TR/2001/REC-SVG-20010904/DTD/svg10.dtd">
<svg version="1.0" xmlns="http://www.w3.org/2000/svg"
 width="512.000000pt" height="512.000000pt" viewBox="0 0 512.000000 512.000000"
 preserveAspectRatio="xMidYMid meet">
<metadata>
Created by potrace 1.14, written by Peter Selinger 2001-2017
</metadata>
<g transform="translate(0.000000,512.000000) scale(0.100000,-0.100000)"
fill="#000000" stroke="none">
<path d="M3238 5106 c-27 -7 -48 -12 -48 -10 0 2 -30 -10 -67 -27 -84 -38
-161 -96 -209 -158 -29 -39 -41 -47 -62 -45 -245 29 -445 25 -652 -12 -274
-50 -526 -155 -757 -316 -101 -70 -134 -98 -245 -212 -233 -237 -377 -537
-414 -861 -8 -68 -8 -256 -1 -297 4 -20 1 -29 -12 -33 -34 -10 -102 -92 -126
-151 -44 -108 -20 -238 59 -322 23 -23 34 -43 30 -52 -29 -68 -36 -100 -31
-151 11 -131 130 -224 263 -205 48 6 82 24 130 68 l31 29 36 -76 c127 -267
359 -516 622 -668 68 -40 113 -61 270 -126 l20 -9 -20 -7 c-275 -103 -499
-267 -651 -478 -24 -34 -49 -68 -54 -74 -19 -23 -97 -186 -118 -248 -44 -126
-66 -251 -65 -380 0 -99 25 -158 91 -215 84 -74 11 -70 1308 -70 1295 0 1212
-4 1297 71 70 61 90 114 89 234 -2 380 -222 766 -567 997 -80 54 -258 148
-279 148 -3 0 -17 5 -33 11 -27 10 -27 11 42 38 365 142 670 424 846 783 l33
67 42 -38 c98 -86 229 -80 320 14 66 69 82 181 39 265 -16 31 -16 32 21 72 52
58 77 120 79 202 4 100 -16 148 -96 227 -45 45 -64 72 -62 85 6 31 5 238 -2
295 -32 271 -146 539 -320 752 -31 39 -41 58 -34 68 25 38 50 149 51 220 1
157 -60 292 -189 416 -121 118 -277 183 -453 188 -64 2 -124 -1 -152 -9z"/>
</g>
</svg>
